<svg xmlns="http://www.w3.org/2000/svg" viewBox="0 0 240 240" role="img" aria-label="Les Bonnets Gris">
  <title>Les Bonnets Gris — favicon / effet tampon</title>
  <circle cx="120" cy="120" r="120" fill="#211D1A"/>
  <g transform="translate(30,4) scale(0.75)">
    <path d="M52,138 C52,78 76,46 120,46 C164,46 188,78 188,138"
          fill="none" stroke="#FBF7F0" stroke-width="9" stroke-linecap="round"/>
    <g transform="translate(38,150) scale(4.4)">
      <path d="M12 21.35l-1.45-1.32C5.4 15.36 2 12.28 2 8.5 2 5.42 4.42 3 7.5 3c1.74 0 3.41.81 4.5 2.09C13.09 3.81 14.76 3 16.5 3 19.58 3 22 5.42 22 8.5c0 3.78-3.4 6.86-8.55 11.54L12 21.35z"
            fill="#211D1A" stroke="#FBF7F0" stroke-width="1.6" stroke-linejoin="round"/>
    </g>
    <g transform="translate(88,162) scale(4.4)">
      <path d="M12 21.35l-1.45-1.32C5.4 15.36 2 12.28 2 8.5 2 5.42 4.42 3 7.5 3c1.74 0 3.41.81 4.5 2.09C13.09 3.81 14.76 3 16.5 3 19.58 3 22 5.42 22 8.5c0 3.78-3.4 6.86-8.55 11.54L12 21.35z"
            fill="#F2642D"/>
    </g>
    <rect x="40" y="120" width="160" height="34" rx="17" fill="#211D1A" stroke="#FBF7F0" stroke-width="9"/>
    <circle cx="120" cy="30" r="16" fill="#FBF7F0"/>
  </g>
</svg>
